<svg aria-hidden="true" style="position: absolute; width: 0; height: 0; overflow: hidden;" version="1.1" xmlns="http://www.w3.org/2000/svg" xmlns:xlink="http://www.w3.org/1999/xlink">
  <defs>
      <symbol id="icon-logo" viewBox="0 0 76 32">
         <path d="M3.467 6.925l-1.267-0.767c-0.794-0.483-1.361-0.958-1.7-1.425-0.333-0.472-0.5-1.014-0.5-1.625 0-0.917 0.317-1.661 0.95-2.233 0.639-0.572 1.467-0.858 2.483-0.858 0.972 0 1.864 0.272 2.675 0.817v1.892c-0.839-0.806-1.742-1.208-2.708-1.208-0.544 0-0.992 0.128-1.342 0.383-0.35 0.25-0.525 0.572-0.525 0.967 0 0.35 0.128 0.678 0.383 0.983s0.669 0.625 1.242 0.958l1.275 0.75c1.422 0.844 2.133 1.922 2.133 3.233 0 0.933-0.314 1.692-0.942 2.275-0.622 0.583-1.433 0.875-2.433 0.875-1.15 0-2.197-0.353-3.142-1.058v-2.117c0.9 1.139 1.942 1.708 3.125 1.708 0.522 0 0.956-0.145 1.3-0.433 0.35-0.294 0.525-0.661 0.525-1.1 0-0.711-0.511-1.383-1.533-2.017zM16.608 0.167h1.667v11.642h-1.667v-5.067h-6.542v5.067h-1.667v-11.642h1.667v5.033h6.542v-5.033zM26.567 0c1.8 0 3.297 0.569 4.492 1.708 1.2 1.139 1.8 2.567 1.8 4.283s-0.605 3.139-1.817 4.267c-1.206 1.122-2.728 1.683-4.567 1.683-1.756 0-3.22-0.561-4.392-1.683-1.167-1.128-1.75-2.539-1.75-4.233 0-1.739 0.589-3.178 1.767-4.317s2.667-1.708 4.467-1.708zM26.633 1.583c-1.333 0-2.43 0.417-3.292 1.25-0.856 0.833-1.283 1.897-1.283 3.192 0 1.256 0.431 2.3 1.292 3.133s1.939 1.25 3.233 1.25c1.3 0 2.383-0.425 3.25-1.275 0.872-0.85 1.308-1.908 1.308-3.175 0-1.233-0.436-2.269-1.308-3.108-0.867-0.844-1.933-1.267-3.2-1.267zM34.808 11.808v-11.658h3.692c1.111 0 1.997 0.3 2.658 0.9s0.992 1.406 0.992 2.417c0 0.678-0.169 1.278-0.508 1.8s-0.803 0.903-1.392 1.142c-0.589 0.233-1.433 0.35-2.533 0.35h-1.233v5.050h-1.675zM38.208 1.633h-1.725v3.642h1.825c0.678 0 1.2-0.158 1.567-0.475 0.367-0.322 0.55-0.781 0.55-1.375 0-1.194-0.739-1.792-2.217-1.792zM11.3 28.444c0 0.994-0.342 1.789-1.025 2.383-0.678 0.594-1.628 0.892-2.85 0.892h-6.675v-11.55h5.583c0.722 0 1.35 0.069 1.883 0.208 0.539 0.139 0.972 0.331 1.3 0.575 0.328 0.239 0.572 0.522 0.733 0.85s0.242 0.686 0.242 1.075c0 0.422-0.083 0.814-0.25 1.175-0.167 0.356-0.375 0.65-0.625 0.883-0.244 0.228-0.492 0.389-0.742 0.483 0.789 0.311 1.389 0.706 1.8 1.183 0.417 0.472 0.625 1.086 0.625 1.842zM7.233 23.494c0-0.556-0.183-0.925-0.55-1.108s-0.939-0.275-1.717-0.275h-0.733v2.767h0.75c0.794 0 1.367-0.092 1.717-0.275 0.356-0.183 0.533-0.553 0.533-1.108zM7.8 28.303c0-0.989-0.717-1.483-2.15-1.483h-1.417v2.958h1.417c1.433 0 2.15-0.492 2.15-1.475zM25.717 31.719h-3.567l-0.942-2.342h-5.017l-0.958 2.342h-3.567l5.108-11.55h3.85l5.092 11.55zM20.408 27.369l-1.692-4.217-1.708 4.217h3.4zM39.4 31.719h-4.25l-4.417-5.408v5.408h-3.483v-11.55h3.483v5.167l4.183-5.167h3.783l-4.3 5.408 5 6.142zM49.625 31.719h-8.708v-11.55h8.567v2.317h-5.083v2.117h4.85v2.325h-4.85v2.467h5.225v2.325zM63.15 31.719h-3.742l-0.908-2.050c-0.333-0.75-0.633-1.297-0.9-1.642-0.267-0.35-0.528-0.572-0.783-0.667-0.25-0.1-0.575-0.15-0.975-0.15h-0.392v4.508h-3.483v-11.55h5.925c0.956 0 1.739 0.194 2.35 0.583s1.050 0.861 1.317 1.417c0.272 0.556 0.408 1.083 0.408 1.583 0 0.583-0.114 1.078-0.342 1.483-0.222 0.4-0.458 0.692-0.708 0.875s-0.531 0.358-0.842 0.525c0.372 0.217 0.678 0.475 0.917 0.775 0.244 0.294 0.575 0.894 0.992 1.8l1.167 2.508zM58.417 23.819c0-0.533-0.175-0.906-0.525-1.117s-0.919-0.317-1.708-0.317h-0.733v2.783h0.75c0.85 0 1.431-0.092 1.742-0.275 0.317-0.189 0.475-0.547 0.475-1.075zM75.5 20.169l-4.525 6.258v5.292h-3.483v-5.225l-4.608-6.325h3.617l2.65 3.633 2.658-3.633h3.692z"></path>
      </symbol>
      <symbol id="icon-Arrow" viewBox="0 0 38 32">
         <path d="M0.624 17.219c-0.833-0.833-0.833-2.184 0-3.017l13.576-13.576c0.833-0.833 2.184-0.833 3.017 0s0.833 2.184 0 3.017l-12.068 12.068 12.068 12.068c0.833 0.833 0.833 2.184 0 3.017s-2.184 0.833-3.017 0l-13.576-13.576zM37.892 17.844h-35.759v-4.267h35.759v4.267z"></path>
         </symbol>
         <symbol id="icon-facebook" viewBox="0 0 32 32">
         <path d="M0 16c0-8.837 7.163-16 16-16s16 7.163 16 16c0 8.837-7.163 16-16 16s-16-7.163-16-16zM17.668 25.408v-8.705h2.403l0.319-3h-2.721l0.004-1.501c0-0.782 0.074-1.202 1.198-1.202h1.502v-3h-2.403c-2.887 0-3.903 1.455-3.903 3.902v1.801h-1.799v3h1.799v8.705h3.602z"></path>
        </symbol>
      <symbol id="icon-instagram" viewBox="0 0 32 32">
         <path d="M0 16c0-8.837 7.163-16 16-16s16 7.163 16 16c0 8.837-7.163 16-16 16s-16-7.163-16-16zM16.001 7.467c-2.317 0-2.608 0.010-3.519 0.052-0.909 0.042-1.528 0.185-2.071 0.396-0.561 0.218-1.037 0.51-1.512 0.984s-0.766 0.95-0.985 1.511c-0.212 0.543-0.356 1.163-0.396 2.071-0.041 0.91-0.051 1.201-0.051 3.519s0.010 2.607 0.052 3.518c0.042 0.909 0.186 1.529 0.396 2.071 0.218 0.561 0.51 1.037 0.984 1.512s0.95 0.767 1.511 0.985c0.543 0.211 1.163 0.355 2.072 0.396 0.91 0.041 1.201 0.052 3.518 0.052s2.608-0.010 3.518-0.052c0.908-0.042 1.529-0.185 2.072-0.396 0.561-0.218 1.036-0.51 1.511-0.985s0.766-0.95 0.985-1.512c0.21-0.543 0.354-1.163 0.396-2.071 0.041-0.91 0.052-1.2 0.052-3.518s-0.011-2.608-0.052-3.519c-0.043-0.909-0.187-1.529-0.396-2.071-0.219-0.561-0.51-1.037-0.985-1.512s-0.949-0.766-1.511-0.984c-0.544-0.211-1.164-0.355-2.073-0.396-0.91-0.041-1.2-0.052-3.518-0.052h0.003z"></path>
         <path d="M15.235 9.005c0.227-0 0.481 0 0.766 0 2.278 0 2.548 0.008 3.448 0.049 0.832 0.038 1.284 0.177 1.584 0.294 0.398 0.155 0.682 0.34 0.981 0.638s0.484 0.583 0.639 0.981c0.117 0.3 0.256 0.752 0.294 1.584 0.041 0.899 0.050 1.17 0.050 3.447s-0.009 2.548-0.050 3.447c-0.038 0.832-0.177 1.284-0.294 1.584-0.155 0.398-0.34 0.682-0.639 0.98s-0.582 0.483-0.981 0.638c-0.3 0.117-0.752 0.256-1.584 0.294-0.9 0.041-1.17 0.050-3.448 0.050s-2.549-0.009-3.448-0.050c-0.832-0.038-1.284-0.177-1.585-0.294-0.398-0.155-0.683-0.34-0.981-0.638s-0.484-0.582-0.639-0.981c-0.117-0.3-0.256-0.752-0.294-1.584-0.041-0.9-0.049-1.17-0.049-3.449s0.008-2.548 0.049-3.447c0.038-0.832 0.177-1.284 0.294-1.584 0.155-0.398 0.34-0.683 0.639-0.981s0.583-0.484 0.981-0.639c0.301-0.117 0.753-0.256 1.585-0.294 0.787-0.036 1.092-0.046 2.683-0.048v0.002zM20.555 10.422c-0.565 0-1.024 0.458-1.024 1.024s0.459 1.024 1.024 1.024c0.565 0 1.024-0.459 1.024-1.024s-0.459-1.024-1.024-1.024zM16 11.618c-2.42 0-4.382 1.962-4.382 4.382s1.962 4.381 4.382 4.381c2.42 0 4.381-1.961 4.381-4.381s-1.961-4.382-4.381-4.382z"></path>
         <path d="M16.001 13.155c1.571 0 2.845 1.273 2.845 2.844s-1.274 2.845-2.845 2.845c-1.571 0-2.845-1.274-2.845-2.845s1.273-2.844 2.845-2.844z"></path>
      </symbol>
      <symbol id="icon-menu" viewBox="0 0 46 32">
          <path d="M45.714 29.726c0 1.257-1.019 2.274-2.274 2.274h-18.309c-1.256 0-2.274-1.018-2.274-2.274s1.018-2.274 2.274-2.274h18.309c1.257 0 2.274 1.017 2.274 2.274zM45.714 16c0 1.257-1.019 2.274-2.274 2.274h-41.166c-1.256 0-2.274-1.018-2.274-2.274s1.018-2.274 2.274-2.274h41.166c1.257 0 2.274 1.019 2.274 2.274zM43.44 4.549c1.256 0 2.274-1.018 2.274-2.274s-1.018-2.274-2.274-2.274v0h-27.451c-1.256 0-2.274 1.018-2.274 2.274s1.018 2.274 2.274 2.274v0z"></path>
       </symbol>
  </defs>
</svg>
