<svg width="156" height="157" viewBox="0 0 156 157" fill="none" xmlns="http://www.w3.org/2000/svg">
<path d="M76.7151 29.2288L75.2484 29.3693L74.2855 19.0183L70.6515 19.3664L70.5317 18.0787L79.25 17.2435L79.3698 18.5313L75.7521 18.8778L76.7151 29.2288Z" fill="#A28268"/>
<path d="M85.5902 20.4395C86.6672 20.5253 87.5004 20.9695 88.0897 21.772C88.6899 22.5753 88.9261 23.7328 88.7984 25.2445C88.7147 26.2342 88.4917 27.0595 88.1292 27.7204C87.7785 28.3713 87.3164 28.8491 86.7431 29.1537C86.1816 29.4484 85.5363 29.5667 84.8075 29.5086C84.3614 29.473 83.9694 29.3816 83.6314 29.2342C83.2934 29.0868 83.0071 28.9107 82.7725 28.7058C82.5497 28.491 82.3609 28.2625 82.2062 28.0202L82.1083 28.0124C82.1144 28.199 82.1164 28.4346 82.1143 28.7191C82.1121 29.0036 82.1023 29.2491 82.0849 29.4558L81.7816 33.0448L80.3456 32.9303L81.4153 20.2709L82.5902 20.3646L82.6854 21.5711L82.7507 21.5763C82.9459 21.34 83.1719 21.1281 83.4287 20.9406C83.6963 20.7539 84.0038 20.6141 84.3512 20.5214C84.7094 20.4295 85.1224 20.4022 85.5902 20.4395ZM85.2271 21.6259C84.6397 21.5791 84.1568 21.6555 83.7785 21.8553C83.4011 22.0442 83.112 22.3551 82.9111 22.788C82.7103 23.2209 82.5755 23.7795 82.5067 24.4638L82.4833 24.7412C82.4226 25.4589 82.4473 26.0741 82.5573 26.5865C82.6673 27.0989 82.8908 27.4999 83.2278 27.7896C83.5756 28.0801 84.065 28.2505 84.696 28.3008C85.229 28.3433 85.6766 28.2311 86.0386 27.9644C86.4116 27.6985 86.7008 27.3219 86.9062 26.8346C87.1235 26.3373 87.2597 25.7624 87.3148 25.1099C87.3993 24.1093 87.2711 23.2943 86.93 22.6649C86.5998 22.0364 86.0321 21.6901 85.2271 21.6259Z" fill="#A28268"/>
<path d="M94.8836 22.0558C95.9184 22.3261 96.6232 22.7527 96.998 23.3357C97.3729 23.9187 97.4276 24.7057 97.1622 25.6968L95.6164 31.4692L94.6028 31.2045L94.6554 29.9322L94.592 29.9157C94.2673 30.158 93.9447 30.3502 93.6243 30.4921C93.3172 30.6262 92.982 30.6966 92.6188 30.7033C92.266 30.7127 91.8521 30.6553 91.3769 30.5312C90.8701 30.3988 90.4348 30.1893 90.071 29.9025C89.7178 29.6185 89.4744 29.2616 89.341 28.8319C89.2103 28.3917 89.2212 27.8869 89.3737 27.3176C89.5996 26.4741 90.1058 25.9125 90.8924 25.6329C91.6818 25.3427 92.7738 25.3572 94.1683 25.6763L95.6223 26.0052L95.7578 25.4992C95.947 24.7928 95.9251 24.2625 95.6923 23.9084C95.4596 23.5543 95.0634 23.3042 94.5037 23.158C94.0603 23.0422 93.6196 23.0004 93.1816 23.0327C92.7465 23.0544 92.3322 23.1041 91.9386 23.1818L91.7904 22.0263C92.2136 21.9225 92.697 21.8683 93.2405 21.8636C93.7869 21.8484 94.3346 21.9124 94.8836 22.0558ZM94.0842 26.6865C93.017 26.4529 92.238 26.4299 91.7472 26.6176C91.2669 26.808 90.9547 27.1721 90.8107 27.7098C90.6837 28.1842 90.733 28.5694 90.9588 28.8653C91.1952 29.1639 91.5404 29.3725 91.9944 29.4911C92.7124 29.6786 93.3612 29.6394 93.9408 29.3734C94.5232 29.0968 94.9246 28.5473 95.1448 27.725L95.3481 26.9658L94.0842 26.6865Z" fill="#A28268"/>
<path d="M107.699 27.7008L104.56 34.5828L105.725 35.1047L103.958 38.9777L102.689 38.409L103.952 35.6383L98.38 33.1426L97.1163 35.9133L95.8614 35.3512L97.6279 31.4782L98.2703 31.7659C99.0183 31.3355 99.7116 30.8148 100.35 30.2038C101.003 29.5874 101.59 28.9054 102.111 28.158C102.646 27.4051 103.104 26.6238 103.486 25.8139L107.699 27.7008ZM104.182 27.3636C103.834 28.0211 103.411 28.6744 102.911 29.3235C102.415 29.9627 101.883 30.5498 101.316 31.0848C100.758 31.6242 100.196 32.0542 99.6298 32.3748L103.29 34.0141L105.96 28.1599L104.182 27.3636Z" fill="#A28268"/>
<path d="M109.167 33.6462C109.111 33.7267 109.025 33.84 108.91 33.9859C108.809 34.129 108.696 34.2825 108.568 34.4463C108.446 34.6011 108.328 34.7515 108.213 34.8974C108.104 35.0344 108.013 35.1445 107.942 35.2278L116.021 31.8675L117.477 32.8704L112.45 40.0636L111.345 39.3021L114.309 35.0613C114.409 34.9182 114.54 34.7303 114.702 34.4977C114.874 34.2713 115.042 34.0493 115.208 33.8318C115.379 33.6054 115.51 33.4372 115.601 33.327L107.557 36.6925L106.088 35.6802L111.115 28.487L112.234 29.2578L109.167 33.6462Z" fill="#A28268"/>
<path d="M117.201 50.1254L116.217 49.1186L118.407 47.0023L113.338 41.8161L119.649 35.7176L120.656 36.7478L115.216 42.0044L118.386 45.2472L123.825 39.9906L124.832 41.0208L119.381 46.2888L120.25 47.1785L117.201 50.1254Z" fill="#A28268"/>
<path d="M128.558 46.1885L121.481 51.3776L120.624 50.2196L127.701 45.0304L128.558 46.1885ZM130.793 43.6767C130.923 43.8521 130.975 44.0508 130.949 44.2728C130.938 44.4971 130.805 44.7028 130.55 44.89C130.304 45.0707 130.067 45.136 129.84 45.086C129.619 45.0448 129.444 44.9364 129.314 44.761C129.172 44.568 129.113 44.3605 129.139 44.1385C129.165 43.9166 129.301 43.7153 129.547 43.5345C129.803 43.3474 130.036 43.2776 130.248 43.3253C130.469 43.3666 130.65 43.4837 130.793 43.6767Z" fill="#A28268"/>
<path d="M124.366 54.2686L123.613 53.0411L131.106 48.4734L131.859 49.7009L124.366 54.2686ZM132.31 45.8986C132.552 45.7509 132.765 45.7109 132.947 45.7786C133.139 45.8406 133.289 45.9599 133.398 46.1366C133.506 46.3133 133.545 46.5008 133.513 46.6992C133.49 46.8919 133.358 47.0621 133.115 47.2098C132.882 47.3518 132.665 47.3947 132.464 47.3383C132.273 47.2763 132.122 47.157 132.014 46.9803C131.905 46.8036 131.867 46.6161 131.899 46.4177C131.94 46.2137 132.077 46.0406 132.31 45.8986ZM133.921 48.521C134.163 48.3733 134.373 48.3286 134.549 48.387C134.741 48.449 134.891 48.5684 135 48.7451C135.108 48.9217 135.147 49.1093 135.115 49.3076C135.092 49.5003 134.96 49.6705 134.717 49.8182C134.484 49.9603 134.267 50.0031 134.066 49.9468C133.874 49.8848 133.724 49.7654 133.616 49.5887C133.507 49.412 133.469 49.2245 133.501 49.0262C133.548 48.8314 133.688 48.663 133.921 48.521Z" fill="#A28268"/>
<path d="M138.546 69.343L130.05 71.536L129.727 70.2836L135.149 68.8843C135.371 68.827 135.604 68.7723 135.85 68.7201C136.099 68.6785 136.342 68.6383 136.58 68.5994L136.568 68.5518L129.021 67.5409L128.719 66.3677L134.858 61.9092L134.845 61.8616C134.618 61.9428 134.383 62.0147 134.14 62.0774C133.9 62.1507 133.653 62.2201 133.399 62.2856L128.026 63.6726L127.703 62.4202L136.2 60.2271L136.677 62.082L130.535 66.5247L138.069 67.4881L138.546 69.343Z" fill="#A28268"/>
<path d="M134.767 82.5812C134.037 82.6203 133.383 82.5569 132.807 82.391C132.242 82.2354 131.754 81.9882 131.344 81.6495C130.934 81.3217 130.613 80.9072 130.38 80.4059C130.158 79.915 130.032 79.3589 130.001 78.7375C129.972 78.1598 130.043 77.6204 130.215 77.1194C130.397 76.6178 130.675 76.1767 131.05 75.796C131.424 75.4153 131.884 75.1065 132.429 74.8697C132.986 74.6431 133.63 74.5103 134.36 74.4713C135.33 74.4194 136.155 74.5392 136.836 74.8306C137.528 75.1215 138.064 75.5628 138.444 76.1546C138.834 76.7458 139.05 77.461 139.092 78.3004C139.132 79.0961 138.987 79.8033 138.658 80.4221C138.34 81.0512 137.851 81.5528 137.193 81.9268C136.545 82.3112 135.737 82.5293 134.767 82.5812ZM134.434 75.9592C133.748 75.9959 133.153 76.1152 132.649 76.317C132.157 76.5291 131.785 76.8332 131.531 77.2293C131.278 77.6254 131.166 78.1178 131.196 78.7064C131.225 79.295 131.386 79.7728 131.678 80.1397C131.969 80.5067 132.37 80.764 132.88 80.9115C133.402 81.0694 134.006 81.13 134.692 81.0933C135.39 81.056 135.979 80.9316 136.46 80.72C136.941 80.5085 137.303 80.205 137.545 79.8094C137.799 79.4243 137.911 78.9319 137.881 78.3324C137.836 77.4385 137.509 76.8057 136.901 76.4339C136.292 76.062 135.47 75.9038 134.434 75.9592Z" fill="#A28268"/>
<path d="M137.979 93.9316L134.303 89.7446L129.249 92.984L129.492 91.3649L134.462 88.2456L130.055 87.6086L130.254 86.281L134.661 86.918L130.818 82.5247L131.061 80.9057L134.949 85.4378L139.699 82.4685L139.465 84.0228L134.726 86.9274L138.938 87.5362L138.739 88.8639L134.527 88.255L138.21 92.3935L137.979 93.9316Z" fill="#A28268"/>
<path d="M136.892 95.3417L136.379 96.7928L131.028 96.9513C130.713 96.9578 130.413 96.9577 130.126 96.9508C129.835 96.9543 129.553 96.9492 129.28 96.9356C129.018 96.9256 128.766 96.9019 128.524 96.8646L128.502 96.9263C128.738 97.0773 129.039 97.291 129.404 97.5675C129.78 97.8476 130.154 98.1328 130.526 98.4231L134.634 101.733L134.116 103.199L125.939 96.3687C125.493 95.9948 125.126 95.6081 124.839 95.2085C124.538 94.8156 124.351 94.3931 124.28 93.941C124.194 93.4956 124.246 93.0053 124.435 92.4701C124.522 92.2231 124.614 92.0124 124.71 91.8378C124.796 91.6597 124.878 91.5091 124.957 91.386L126.04 91.7606C125.979 91.8667 125.911 91.9934 125.836 92.1406C125.757 92.2981 125.687 92.4644 125.625 92.6393C125.512 92.9584 125.478 93.2525 125.522 93.5217C125.551 93.7977 125.651 94.0572 125.819 94.3004C125.978 94.5399 126.186 94.7681 126.446 94.9847L127.391 95.797L136.892 95.3417Z" fill="#A28268"/>
<path d="M128.984 109.628L130.332 107.1L123.635 103.587L124.306 102.33L131.003 105.843L132.336 103.344L133.408 103.907L130.056 110.191L128.984 109.628Z" fill="#A28268"/>
<path d="M124.112 113.56C123.649 114.169 123.192 114.617 122.74 114.905C122.288 115.194 121.837 115.327 121.388 115.304C120.942 115.297 120.496 115.126 120.05 114.792C119.614 114.465 119.31 114.08 119.139 113.638C118.961 113.205 118.94 112.718 119.076 112.179C119.212 111.64 119.524 111.048 120.013 110.405L122.42 107.238L129.44 112.501L128.568 113.648L125.687 111.488L124.112 113.56ZM120.857 113.596C121.285 113.917 121.688 113.981 122.068 113.788C122.45 113.61 122.845 113.252 123.255 112.713L124.731 110.771L122.478 109.082L120.982 111.05C120.612 111.537 120.396 112.002 120.333 112.446C120.263 112.898 120.438 113.282 120.857 113.596Z" fill="#A28268"/>
<path d="M114.71 123.814C115.431 124.868 115.94 125.835 116.237 126.715C116.531 127.61 116.608 128.428 116.467 129.169C116.323 129.926 115.951 130.62 115.351 131.251C114.85 131.775 114.353 132.276 113.861 132.755C113.369 133.234 112.906 133.679 112.474 134.091L111.559 133.188C111.769 132.993 112.001 132.771 112.253 132.52C112.511 132.279 112.771 132.031 113.032 131.775C113.299 131.528 113.555 131.282 113.798 131.038C114.038 130.809 114.247 130.602 114.424 130.416C114.679 130.151 114.871 129.862 115.001 129.55C115.138 129.246 115.206 128.91 115.205 128.542C115.195 128.179 115.114 127.78 114.96 127.343C114.807 126.906 114.567 126.429 114.241 125.913L114.159 125.968C114.15 126.225 114.098 126.517 114.005 126.844C113.902 127.177 113.74 127.511 113.519 127.845C113.289 128.186 112.975 128.491 112.578 128.76C111.945 129.189 111.326 129.405 110.719 129.407C110.11 129.425 109.535 129.261 108.995 128.915C108.446 128.575 107.949 128.081 107.506 127.433C106.958 126.631 106.639 125.865 106.549 125.134C106.46 124.404 106.571 123.735 106.884 123.128C107.202 122.53 107.691 122.007 108.35 121.56C108.847 121.223 109.364 121.012 109.9 120.925C110.442 120.848 110.986 120.9 111.534 121.083C112.082 121.265 112.624 121.584 113.159 122.038C113.694 122.493 114.211 123.085 114.71 123.814ZM108.93 122.611C108.532 122.88 108.244 123.194 108.066 123.552C107.879 123.917 107.83 124.339 107.92 124.818C108.01 125.298 108.264 125.844 108.683 126.457C109.188 127.195 109.725 127.682 110.295 127.915C110.861 128.164 111.461 128.074 112.093 127.645C112.491 127.376 112.791 127.041 112.993 126.64C113.201 126.248 113.336 125.866 113.399 125.494C113.462 125.122 113.486 124.829 113.472 124.614C113.17 124.173 112.846 123.766 112.5 123.395C112.153 123.023 111.789 122.723 111.408 122.493C111.023 122.279 110.623 122.168 110.208 122.16C109.79 122.167 109.363 122.317 108.93 122.611Z" fill="#A28268"/>
<path d="M108.38 132.57L106.98 133.208L103.173 129.456C102.952 129.233 102.744 129.016 102.551 128.804C102.348 128.597 102.157 128.39 101.979 128.183C101.805 127.987 101.648 127.788 101.508 127.588L101.449 127.615C101.503 127.89 101.556 128.256 101.609 128.712C101.666 129.177 101.718 129.645 101.765 130.115L102.212 135.38L100.797 136.025L100.082 125.377C100.044 124.795 100.07 124.262 100.16 123.777C100.236 123.287 100.412 122.859 100.689 122.493C100.951 122.122 101.34 121.818 101.857 121.583C102.095 121.474 102.31 121.394 102.503 121.343C102.691 121.281 102.856 121.236 102.999 121.207L103.476 122.249C103.357 122.278 103.219 122.317 103.061 122.365C102.893 122.418 102.725 122.483 102.556 122.56C102.248 122.7 102.012 122.879 101.848 123.098C101.669 123.311 101.551 123.563 101.492 123.854C101.428 124.135 101.408 124.444 101.43 124.781L101.497 126.028L108.38 132.57Z" fill="#A28268"/>
<path d="M92.5913 136.757L95.3452 135.967L93.2617 128.696L94.6308 128.304L96.7143 135.574L99.4367 134.793L99.7704 135.958L92.9251 137.921L92.5913 136.757Z" fill="#A28268"/>
<path d="M88.105 133.52C88.0947 133.423 88.0854 133.281 88.0769 133.095C88.0587 132.922 88.0442 132.731 88.0335 132.524C88.0238 132.327 88.0148 132.136 88.0063 131.95C87.999 131.776 87.995 131.633 87.9945 131.524L84.089 139.336L82.3311 139.525L81.4167 130.798L82.7514 130.654L83.2905 135.799C83.3087 135.973 83.3326 136.201 83.3621 136.483C83.3808 136.767 83.399 137.044 83.4166 137.317C83.4353 137.6 83.4466 137.813 83.4505 137.955L87.3252 130.163L89.0994 129.972L90.0138 138.7L88.6628 138.845L88.105 133.52Z" fill="#A28268"/>
<path d="M68.6776 128.898C69.4364 129.054 70.0823 129.349 70.615 129.782C71.1371 130.213 71.5 130.789 71.7037 131.511C71.8968 132.231 71.8856 133.098 71.6702 134.112C71.4458 135.169 71.0869 135.992 70.5936 136.581C70.1004 137.17 69.5216 137.558 68.8573 137.744C68.1824 137.928 67.4601 137.941 66.6906 137.782C66.2524 137.692 65.8404 137.557 65.4546 137.377C65.0666 137.208 64.758 137.032 64.5287 136.851L65.2098 135.772C65.4459 135.921 65.7259 136.073 66.0498 136.229C66.3737 136.385 66.6852 136.494 66.9845 136.556C67.5616 136.675 68.0633 136.65 68.4896 136.482C68.9158 136.313 69.2708 136.007 69.5545 135.564C69.8382 135.121 70.056 134.542 70.2079 133.827C70.353 133.144 70.3857 132.543 70.306 132.025C70.2264 131.507 70.0309 131.088 69.7197 130.767C69.4084 130.447 68.9803 130.23 68.4352 130.118C67.9649 130.021 67.5432 129.984 67.1701 130.008C66.7863 130.029 66.43 130.078 66.1013 130.155L66.3666 128.906C66.6869 128.816 67.0313 128.77 67.3999 128.768C67.76 128.753 68.1859 128.796 68.6776 128.898Z" fill="#A28268"/>
<path d="M62.4879 136.833L61.0453 136.297L61.0324 130.967C61.0344 130.653 61.0427 130.354 61.0575 130.068C61.0619 129.779 61.0747 129.498 61.0958 129.227C61.1131 128.965 61.1437 128.715 61.1878 128.475L61.1264 128.452C60.9684 128.685 60.7457 128.981 60.4581 129.34C60.1667 129.709 59.8702 130.076 59.5685 130.442L56.134 134.476L54.6759 133.935L61.7562 125.91C62.1437 125.471 62.542 125.112 62.951 124.833C63.3536 124.54 63.7828 124.362 64.2387 124.298C64.6881 124.22 65.1789 124.28 65.7109 124.477C65.9565 124.569 66.1656 124.664 66.3382 124.762C66.5146 124.851 66.6636 124.936 66.785 125.015L66.3793 126.087C66.2745 126.025 66.1492 125.955 66.0035 125.878C65.8475 125.797 65.6825 125.724 65.5086 125.66C65.1914 125.542 64.8971 125.503 64.6256 125.542C64.3478 125.567 64.0845 125.661 63.8358 125.825C63.591 125.979 63.3563 126.183 63.1317 126.437L62.2905 127.365L62.4879 136.833Z" fill="#A28268"/>
<path d="M53.0102 129.186C53.2696 128.743 53.3399 128.343 53.2211 127.984C53.0873 127.63 52.784 127.317 52.3114 127.044C51.8388 126.771 51.3673 126.594 50.897 126.511C50.4211 126.439 49.9082 126.407 49.3582 126.418L47.4543 129.667L46.2065 128.947L50.6436 121.375L51.8914 122.095L49.9129 125.471C50.4983 125.444 51.0459 125.47 51.5556 125.549C52.0504 125.633 52.586 125.841 53.1627 126.174C53.9378 126.621 54.4241 127.173 54.6216 127.828C54.8097 128.479 54.705 129.143 54.3077 129.821L52.6437 132.66L51.396 131.94L53.0102 129.186Z" fill="#A28268"/>
<path d="M40.5022 124.245C39.6829 123.558 39.2287 122.871 39.1397 122.183C39.0506 121.496 39.3383 120.761 40.0026 119.979L43.8719 115.425L44.6745 116.099L44.0821 117.226L44.1322 117.268C44.5295 117.188 44.9033 117.152 45.2536 117.161C45.5885 117.172 45.9216 117.252 46.2527 117.401C46.5755 117.544 46.925 117.773 47.3012 118.088C47.7025 118.425 48.0061 118.801 48.212 119.216C48.4095 119.624 48.4766 120.05 48.4132 120.496C48.3427 120.95 48.1166 121.401 47.735 121.85C47.1696 122.516 46.4716 122.806 45.641 122.722C44.8033 122.646 43.8228 122.166 42.6993 121.28L41.5263 120.36L41.1871 120.759C40.7136 121.317 40.5062 121.805 40.5649 122.225C40.6236 122.645 40.8745 123.04 41.3176 123.412C41.6687 123.707 42.049 123.933 42.4586 124.091C42.8611 124.258 43.2568 124.391 43.6458 124.489L43.2847 125.597C42.8579 125.509 42.3978 125.351 41.9046 125.123C41.4044 124.902 40.9369 124.61 40.5022 124.245ZM43.208 120.403C44.0723 121.071 44.7664 121.426 45.2904 121.466C45.806 121.5 46.244 121.305 46.6044 120.88C46.9224 120.506 47.0428 120.137 46.9655 119.773C46.8798 119.402 46.6572 119.065 46.2977 118.764C45.7292 118.287 45.1261 118.045 44.4884 118.037C43.8436 118.037 43.2456 118.362 42.6944 119.011L42.1855 119.61L43.208 120.403Z" fill="#A28268"/>
<path d="M41.2826 113.049C41.7927 113.632 42.1293 114.257 42.2923 114.924C42.4481 115.583 42.3893 116.262 42.1158 116.961C41.8351 117.651 41.3028 118.336 40.5188 119.014C39.7019 119.721 38.919 120.161 38.1703 120.333C37.4216 120.505 36.7264 120.464 36.0847 120.211C35.4359 119.95 34.8528 119.524 34.3356 118.933C34.041 118.596 33.7943 118.239 33.5956 117.863C33.3886 117.494 33.2484 117.168 33.175 116.885L34.3696 116.435C34.4678 116.697 34.5988 116.987 34.7627 117.307C34.9266 117.627 35.1091 117.902 35.3102 118.132C35.6982 118.576 36.1128 118.859 36.5541 118.982C36.9953 119.106 37.4627 119.076 37.9562 118.894C38.4497 118.713 38.9729 118.382 39.5258 117.904C40.0539 117.446 40.4426 116.987 40.6918 116.526C40.9411 116.065 41.0384 115.613 40.984 115.169C40.9295 114.726 40.7191 114.294 40.3527 113.875C40.0365 113.514 39.7228 113.23 39.4114 113.023C39.0929 112.808 38.7794 112.632 38.471 112.495L39.4365 111.659C39.746 111.781 40.0482 111.952 40.343 112.173C40.639 112.379 40.9522 112.671 41.2826 113.049Z" fill="#A28268"/>
<path d="M29.9997 113.073L33.1241 111.185L30.6466 107.116L27.5221 109.005L26.7729 107.775L34.2828 103.235L35.032 104.465L31.6834 106.489L34.161 110.558L37.5096 108.534L38.2588 109.764L30.7489 114.304L29.9997 113.073Z" fill="#A28268"/>
<path d="M29.4524 100.724C29.5446 100.69 29.6797 100.647 29.8577 100.593C30.0216 100.533 30.2028 100.472 30.4012 100.411C30.5894 100.353 30.7725 100.298 30.9504 100.244C31.1181 100.194 31.2551 100.155 31.3613 100.128L22.8387 98.2516L22.2283 96.5923L30.466 93.5687L30.9295 94.8286L26.0729 96.6111C25.9089 96.6713 25.6938 96.7502 25.4274 96.848C25.1572 96.9356 24.8922 97.0212 24.6323 97.105C24.3621 97.1925 24.1585 97.2556 24.0216 97.2943L32.5176 99.1457L33.1336 100.82L24.8959 103.844L24.4268 102.569L29.4524 100.724Z" fill="#A28268"/>
<path d="M20.5007 83.9859L29.1829 82.7153L29.3674 83.9954L23.8277 84.8061C23.6009 84.8393 23.3626 84.8686 23.1126 84.8942C22.8611 84.9089 22.615 84.9229 22.3744 84.936L22.3814 84.9846L29.7716 86.7985L29.9445 87.9976L23.3602 91.7739L23.3673 91.8225C23.6017 91.7661 23.8431 91.7197 24.0915 91.6834C24.3383 91.6362 24.5913 91.5937 24.8505 91.5558L30.3417 90.7522L30.5262 92.0322L21.844 93.3028L21.5707 91.407L28.1572 87.647L20.774 85.8817L20.5007 83.9859Z" fill="#A28268"/>
<path d="M25.6382 79.4257C25.7363 79.4313 25.8776 79.4448 26.0621 79.4662C26.2365 79.4762 26.4268 79.4924 26.6332 79.5151C26.8286 79.5371 27.0186 79.5589 27.2032 79.5803C27.3768 79.6011 27.5178 79.6201 27.6261 79.6371L20.5763 74.5302L20.6849 72.7654L29.4451 73.2634L29.3626 74.6033L24.1981 74.3097C24.0237 74.2998 23.7949 74.2868 23.5116 74.2707C23.229 74.2437 22.9518 74.217 22.6801 74.1906C22.3975 74.1636 22.1857 74.1406 22.0447 74.1217L29.0802 79.1951L28.9706 80.9762L20.2104 80.4782L20.2939 79.1219L25.6382 79.4257Z" fill="#A28268"/>
<path d="M23.6894 58.7462C23.9365 58.1279 24.2375 57.6245 24.5925 57.2361C24.9374 56.8437 25.323 56.5845 25.7494 56.4586C26.1656 56.3286 26.6024 56.3532 27.0596 56.5324C27.5575 56.7275 27.899 57.0196 28.0843 57.4087C28.2594 57.7939 28.3179 58.2505 28.2596 58.7786L28.3205 58.8025C28.5416 58.514 28.7881 58.2648 29.06 58.0548C29.332 57.8449 29.6324 57.7106 29.9614 57.6519C30.2944 57.5832 30.6692 57.6304 31.0858 57.7936C31.5329 57.9688 31.8887 58.2548 32.1532 58.6515C32.4217 59.0381 32.5594 59.5317 32.5662 60.1322C32.577 60.7226 32.4224 61.4181 32.1024 62.2188C31.9485 62.604 31.7803 62.966 31.5979 63.3048C31.4196 63.6335 31.233 63.9238 31.0383 64.1757C30.8477 64.4176 30.6539 64.623 30.4571 64.792L29.2531 64.3202C29.5534 64.0393 29.8627 63.6916 30.1812 63.2771C30.5036 62.8525 30.7762 62.3615 30.999 61.804C31.1611 61.3986 31.2612 61.0158 31.2993 60.6556C31.3416 60.2853 31.3046 59.9661 31.1885 59.6978C31.0623 59.4256 30.8265 59.2218 30.481 59.0865C30.166 58.963 29.8776 58.9496 29.6157 59.0463C29.3436 59.139 29.0879 59.3377 28.8486 59.6425C28.6133 59.9372 28.3903 60.348 28.1797 60.8751L27.7422 61.9697L26.6449 61.5397L26.9973 60.6579C27.2768 59.9585 27.4082 59.3653 27.3914 58.878C27.3684 58.3767 27.1284 58.0364 26.6711 57.8573C26.285 57.7059 25.9307 57.7546 25.608 58.0033C25.2894 58.2419 25.0106 58.6602 24.7716 59.2582C24.5934 59.7041 24.4811 60.1173 24.4348 60.4978C24.3824 60.8641 24.3616 61.2838 24.3723 61.7569L23.1171 61.8102C23.0982 61.2987 23.1383 60.7868 23.2372 60.2746C23.3361 59.7624 23.4869 59.2529 23.6894 58.7462Z" fill="#A28268"/>
<path d="M29.4204 47.3779L32.4111 49.4707L35.1687 45.5853L32.1779 43.4925L33.0118 42.3176L40.2004 47.3478L39.3665 48.5228L36.1611 46.2798L33.4036 50.1652L36.6089 52.4081L35.775 53.5831L28.5865 48.5528L29.4204 47.3779Z" fill="#A28268"/>
<path d="M38.2279 36.4861C38.9944 35.7399 39.726 35.3551 40.4228 35.3317C41.1196 35.3082 41.8278 35.662 42.5475 36.393L46.7391 40.6506L45.9882 41.3815L44.916 40.6891L44.8691 40.7348C44.9112 41.1355 44.9111 41.5087 44.8687 41.8546C44.8265 42.1851 44.7147 42.5071 44.5333 42.8208C44.3597 43.1268 44.097 43.4511 43.7451 43.7937C43.3697 44.1592 42.9644 44.4243 42.5292 44.589C42.1019 44.7462 41.6682 44.7724 41.2282 44.6677C40.7805 44.5553 40.3499 44.2891 39.9365 43.8692C39.324 43.247 39.0996 42.529 39.2631 41.7149C39.4189 40.8931 39.9938 39.9679 40.9878 38.9394L42.0209 37.8651L41.6534 37.4918C41.1404 36.9708 40.671 36.7196 40.2452 36.7382C39.8193 36.7568 39.3991 36.9679 38.9846 37.3714C38.6561 37.6912 38.3931 38.0463 38.1954 38.4367C37.9901 38.8194 37.8196 39.1985 37.684 39.5742L36.6093 39.1127C36.7376 38.6985 36.9397 38.2581 37.2156 37.7915C37.4838 37.3172 37.8212 36.882 38.2279 36.4861ZM41.8173 39.5253C41.0658 40.3178 40.6448 40.9714 40.5541 41.486C40.4713 41.9931 40.6251 42.4449 41.0156 42.8415C41.3601 43.1915 41.7183 43.3453 42.0902 43.303C42.47 43.2532 42.828 43.0645 43.1643 42.7371C43.6962 42.2194 43.9964 41.6453 44.0651 41.015C44.1261 40.3769 43.858 39.7545 43.2609 39.1479L42.7097 38.588L41.8173 39.5253Z" fill="#A28268"/>
<path d="M50.8356 27.7697L55.6776 35.0866L54.5964 35.7964L51.5069 31.1278C51.3804 30.9367 51.2525 30.7335 51.1231 30.5182C51.0028 30.2969 50.8855 30.0801 50.7713 29.8679L50.7302 29.8949L52.2286 37.3508L51.2158 38.0157L44.9955 33.6595L44.9545 33.6864C45.1052 33.8747 45.2499 34.0734 45.3884 34.2828C45.536 34.4861 45.6821 34.697 45.8266 34.9154L48.8891 39.5431L47.8078 40.2528L42.9658 32.9359L44.5671 31.8847L50.7737 36.2499L49.2342 28.8209L50.8356 27.7697Z" fill="#A28268"/>
<path d="M57.2447 30.275C57.2807 30.3663 57.3277 30.5003 57.3856 30.6769C57.4496 30.8393 57.5146 31.019 57.5805 31.2159C57.6424 31.4026 57.7023 31.5843 57.7602 31.7609C57.8141 31.9273 57.856 32.0633 57.8859 32.1688L59.5626 23.612L61.2081 22.9652L64.4267 31.1279L63.1773 31.619L61.2798 26.8067C61.2157 26.6442 61.1317 26.431 61.0276 26.1671C60.9337 25.8991 60.8417 25.6362 60.7518 25.3784C60.6579 25.1104 60.59 24.9085 60.5481 24.7725L58.8959 33.3021L57.2351 33.9549L54.0165 25.7922L55.2811 25.2951L57.2447 30.275Z" fill="#A28268"/>
</svg>
